<svg width="27" height="26" viewBox="0 0 27 26" fill="none" xmlns="http://www.w3.org/2000/svg">
<path d="M5.74466 6.76013H23.1882C23.5417 6.76015 23.8912 6.83422 24.2143 6.97758C24.5373 7.12094 24.8268 7.33041 25.0639 7.59248C25.3011 7.85455 25.4807 8.16341 25.5912 8.49915C25.7017 8.83488 25.7406 9.19005 25.7055 9.54174L24.9465 17.1314C24.8841 17.7557 24.5919 18.3345 24.1268 18.7554C23.6616 19.1764 23.0566 19.4095 22.4293 19.4096H10.3491C9.76398 19.4098 9.19691 19.2072 8.7444 18.8364C8.29189 18.4655 7.98191 17.9493 7.86723 17.3755L5.74466 6.76013Z" stroke="#454D4A" stroke-width="2.10824" stroke-linejoin="round"/>
<path d="M5.74463 6.76021L4.72002 2.658C4.6515 2.38446 4.49354 2.14166 4.27123 1.96817C4.04893 1.79468 3.77502 1.70045 3.49303 1.70044H1.9498M9.53946 24.4694H12.0693M19.659 24.4694H22.1889" stroke="#454D4A" stroke-width="2.10824" stroke-linecap="round" stroke-linejoin="round"/>
</svg>
